<svg width="50" height="50" viewBox="0 0 50 50" fill="none" xmlns="http://www.w3.org/2000/svg">
<path d="M41.6667 45.2057H35.4167V40.763H41.6667V45.2057ZM41.6667 36.3203H35.4167V31.8776H41.6667V36.3203ZM41.6667 27.4349H35.4167V22.9922H41.6667V27.4349ZM50 15.8838C49.1667 8.55338 43.3333 3 36.4583 3C32.9167 3 29.375 4.55495 26.875 7.22057C25.4167 8.77551 24.375 10.3305 23.75 12.3297L32.5 18.5495H45.8333V47.427H50V15.8838ZM27.7083 14.1068C28.9583 10.1083 32.5 7.4427 36.4583 7.4427C40.4167 7.4427 43.9583 10.1083 45.2083 14.1068H27.7083ZM15.625 11.8854L0 22.9922V47.427H31.25V22.9922L15.625 11.8854ZM27.0833 42.9843H20.8333V29.6562H10.4167V42.9843H4.16667V25.2135L15.625 17.4388L27.0833 25.2135V42.9843Z" fill="#003366" fill-opacity="0.1"/>
</svg>
