<svg width="50" height="50" viewBox="0 0 50 50" fill="none" xmlns="http://www.w3.org/2000/svg">
<path d="M42.2129 20.8438L26.5762 6.08008C26.1429 5.68614 25.5778 5.46866 24.9922 5.47047C24.4067 5.47228 23.8429 5.69324 23.4121 6.08985L7.79883 20.834C7.55734 21.0534 7.36433 21.3209 7.23216 21.6192C7.09998 21.9175 7.03155 22.2401 7.03125 22.5664V40.625C7.03125 41.2466 7.27818 41.8427 7.71772 42.2823C8.15726 42.7218 8.7534 42.9688 9.375 42.9688H18.75C19.3716 42.9688 19.9677 42.7218 20.4073 42.2823C20.8468 41.8427 21.0937 41.2466 21.0938 40.625V31.25C21.0938 31.0428 21.1761 30.8441 21.3226 30.6976C21.4691 30.5511 21.6678 30.4688 21.875 30.4688H28.125C28.3322 30.4688 28.5309 30.5511 28.6774 30.6976C28.8239 30.8441 28.9062 31.0428 28.9062 31.25V40.625C28.9062 41.2466 29.1532 41.8427 29.5927 42.2823C30.0323 42.7218 30.6284 42.9688 31.25 42.9688H40.625C41.2466 42.9688 41.8427 42.7218 42.2823 42.2823C42.7218 41.8427 42.9688 41.2466 42.9688 40.625V22.5664C42.9686 22.2426 42.9013 21.9224 42.7712 21.6259C42.6411 21.3294 42.451 21.0631 42.2129 20.8438ZM41.4062 40.625C41.4062 40.8322 41.3239 41.0309 41.1774 41.1774C41.0309 41.3239 40.8322 41.4063 40.625 41.4063H31.25C31.0428 41.4063 30.8441 41.3239 30.6976 41.1774C30.5511 41.0309 30.4688 40.8322 30.4688 40.625V31.25C30.4688 30.6284 30.2218 30.0323 29.7823 29.5927C29.3427 29.1532 28.7466 28.9063 28.125 28.9063H21.875C21.2534 28.9063 20.6573 29.1532 20.2177 29.5927C19.7782 30.0323 19.5313 30.6284 19.5312 31.25V40.625C19.5312 40.8322 19.4489 41.0309 19.3024 41.1774C19.1559 41.3239 18.9572 41.4063 18.75 41.4063H9.375C9.1678 41.4063 8.96909 41.3239 8.82257 41.1774C8.67606 41.0309 8.59375 40.8322 8.59375 40.625V22.5664C8.59499 22.4557 8.61924 22.3464 8.66497 22.2455C8.7107 22.1446 8.7769 22.0544 8.85938 21.9805L24.4727 7.23633C24.6159 7.1084 24.8011 7.03768 24.9932 7.03768C25.1852 7.03768 25.3705 7.1084 25.5137 7.23633L41.1504 21.998C41.2319 22.0721 41.2969 22.1627 41.341 22.2636C41.3851 22.3646 41.4073 22.4738 41.4062 22.584V40.625Z" fill="#003366" fill-opacity="0.1"/>
</svg>
