<svg width="40" height="40" viewBox="0 0 40 40" fill="none" xmlns="http://www.w3.org/2000/svg">
<path d="M36.1833 14.5167C38.2667 12.4333 37.3167 9.99998 36.1833 8.81665L31.1833 3.81665C29.0833 1.73332 26.6667 2.68332 25.4833 3.81665L22.65 6.66665H18.3333C15.1667 6.66665 13.3333 8.33332 12.4 10.25L5 17.65V24.3167L3.81667 25.4833C1.73333 27.5833 2.68333 30 3.81667 31.1833L8.81667 36.1833C9.71667 37.0833 10.6833 37.4167 11.6 37.4167C12.7833 37.4167 13.8667 36.8333 14.5167 36.1833L19.0167 31.6667H25C27.8333 31.6667 29.2667 29.9 29.7833 28.1667C31.6667 27.6667 32.7 26.2333 33.1167 24.8333C35.7 24.1667 36.6667 21.7167 36.6667 20V15H35.6833L36.1833 14.5167ZM33.3333 20C33.3333 20.75 33.0167 21.6667 31.6667 21.6667H30V23.3333C30 24.0833 29.6833 25 28.3333 25H26.6667V26.6667C26.6667 27.4167 26.35 28.3333 25 28.3333H17.65L12.1833 33.8C11.6667 34.2833 11.3667 34 11.1833 33.8167L6.2 28.85C5.71667 28.3333 6 28.0333 6.18333 27.85L8.33333 25.6833V19.0167L11.6667 15.6833V18.3333C11.6667 20.35 13 23.3333 16.6667 23.3333C20.3333 23.3333 21.6667 20.35 21.6667 18.3333H33.3333V20ZM33.8167 12.15L30.9833 15H18.3333V18.3333C18.3333 19.0833 18.0167 20 16.6667 20C15.3167 20 15 19.0833 15 18.3333V13.3333C15 12.5667 15.2833 9.99998 18.3333 9.99998H24.0167L27.8167 6.19998C28.3333 5.71665 28.6333 5.99998 28.8167 6.18332L33.8 11.15C34.2833 11.6667 34 11.9667 33.8167 12.15Z" fill="black"/>
</svg>
