<svg width="40" height="40" viewBox="0 0 40 40" fill="none" xmlns="http://www.w3.org/2000/svg">
<path d="M9.1 37.5H29.2075C31.3525 37.5 33.09 35.76 33.09 33.615V17.285C36.6075 17.0325 38.68 13.095 36.7775 10.0225L35.69 8.2675C35.2633 7.578 34.6675 7.00895 33.9591 6.6143C33.2508 6.21966 32.4534 6.01251 31.6425 6.0125H28.7025V4.805C28.7028 4.50242 28.6435 4.20274 28.5279 3.9231C28.4124 3.64346 28.2428 3.38934 28.029 3.17527C27.8152 2.9612 27.5612 2.79137 27.2817 2.67551C27.0022 2.55964 26.7026 2.5 26.4 2.5C24.9506 2.5 23.5605 3.07578 22.5357 4.10066C21.5108 5.12555 20.935 6.51559 20.935 7.965V15.305C18.195 15.6125 16.11 16.935 14.58 18.775C12.86 20.84 11.855 23.5225 11.255 26.085C10.7394 28.3967 10.4464 30.7524 10.38 33.12C10.355 33.85 10.355 34.49 10.36 35H9.1025C8.30243 35.0001 7.51976 34.7664 6.85074 34.3276C6.18172 33.8888 5.6555 33.2641 5.33678 32.5303C5.01806 31.7964 4.92074 30.9854 5.05678 30.197C5.19282 29.4086 5.55629 28.6771 6.1025 28.0925L8.095 25.955C9.49834 24.45 10.2628 22.4591 10.2274 20.4016C10.1919 18.3442 9.35934 16.3808 7.905 14.925L5.95 12.9675C5.83469 12.8481 5.69676 12.7529 5.54425 12.6874C5.39175 12.6219 5.22772 12.5874 5.06175 12.5859C4.89578 12.5845 4.73118 12.6161 4.57756 12.679C4.42394 12.7418 4.28437 12.8346 4.167 12.952C4.04964 13.0694 3.95682 13.2089 3.89397 13.3626C3.83112 13.5162 3.79949 13.6808 3.80094 13.8468C3.80238 14.0127 3.83686 14.1768 3.90237 14.3293C3.96788 14.4818 4.06311 14.6197 4.1825 14.735L6.14 16.6925C7.13692 17.6897 7.70767 19.0351 7.73192 20.445C7.75617 21.8549 7.23203 23.2191 6.27 24.25L4.275 26.3875C3.39799 27.3285 2.8147 28.505 2.59671 29.7727C2.37871 31.0404 2.53548 32.3442 3.04779 33.5241C3.56009 34.704 4.40566 35.7087 5.48074 36.415C6.55583 37.1212 7.81368 37.4983 9.1 37.5ZM26.2025 5.0075V7.2625C26.2025 7.59402 26.3342 7.91196 26.5686 8.14638C26.803 8.3808 27.121 8.5125 27.4525 8.5125H31.6425C32.425 8.5125 33.1525 8.9175 33.5675 9.585L34.655 11.34C34.8683 11.6829 34.9859 12.0766 34.9957 12.4802C35.0054 12.8839 34.907 13.2828 34.7106 13.6356C34.5142 13.9884 34.2269 14.2822 33.8787 14.4865C33.5304 14.6908 33.1338 14.7982 32.73 14.7975H31.8425C31.511 14.7975 31.193 14.9292 30.9586 15.1636C30.7242 15.398 30.5925 15.716 30.5925 16.0475V33.615C30.5925 33.9823 30.4466 34.3346 30.1868 34.5943C29.9271 34.8541 29.5748 35 29.2075 35H27.825V33.615C27.8253 32.7589 27.657 31.9111 27.3296 31.1201C27.0022 30.3291 26.5222 29.6103 25.917 29.0048C25.3117 28.3993 24.5931 27.919 23.8022 27.5914C23.0113 27.2637 22.1636 27.095 21.3075 27.095H19.1125C18.781 27.095 18.463 27.2267 18.2286 27.4611C17.9942 27.6955 17.8625 28.0135 17.8625 28.345C17.8625 28.6765 17.9942 28.9945 18.2286 29.2289C18.463 29.4633 18.781 29.595 19.1125 29.595H21.3075C23.525 29.595 25.325 31.395 25.325 33.615V35H12.86C12.8525 34.5175 12.855 33.9075 12.8775 33.2025C12.9375 31.3975 13.14 29.015 13.69 26.6525C14.245 24.2725 15.1325 22.015 16.5 20.375C17.8275 18.78 19.625 17.7375 22.185 17.7375C22.5165 17.7375 22.8345 17.6058 23.0689 17.3714C23.3033 17.137 23.435 16.819 23.435 16.4875V7.965C23.435 6.395 24.6575 5.1075 26.2025 5.0075Z" fill="black"/>
</svg>
