<svg width="40" height="40" viewBox="0 0 40 40" fill="none" xmlns="http://www.w3.org/2000/svg">
<path d="M3.33333 8.33333C3.33333 7.44928 3.68452 6.60143 4.30964 5.97631C4.93476 5.35119 5.78261 5 6.66666 5H33.3333C34.2174 5 35.0652 5.35119 35.6903 5.97631C36.3155 6.60143 36.6667 7.44928 36.6667 8.33333V26.6667C36.6667 27.5507 36.3155 28.3986 35.6903 29.0237C35.0652 29.6488 34.2174 30 33.3333 30H21.6667V33.3333H26.6667C27.1087 33.3333 27.5326 33.5089 27.8452 33.8215C28.1577 34.134 28.3333 34.558 28.3333 35C28.3333 35.442 28.1577 35.866 27.8452 36.1785C27.5326 36.4911 27.1087 36.6667 26.6667 36.6667H13.3333C12.8913 36.6667 12.4674 36.4911 12.1548 36.1785C11.8423 35.866 11.6667 35.442 11.6667 35C11.6667 34.558 11.8423 34.134 12.1548 33.8215C12.4674 33.5089 12.8913 33.3333 13.3333 33.3333H18.3333V30H6.66666C5.78261 30 4.93476 29.6488 4.30964 29.0237C3.68452 28.3986 3.33333 27.5507 3.33333 26.6667V8.33333ZM33.3333 26.6667V8.33333H6.66666V26.6667H33.3333Z" fill="black"/>
</svg>
